<?xml version="1.0" encoding="UTF-8" standalone="no"?>
<svg version="1.1" id="svg1" width="160" height="50" viewBox="0 0 4714.4082 1179.7532"
   xmlns="http://www.w3.org/2000/svg" xmlns:svg="http://www.w3.org/2000/svg">
   <defs id="defs1" />
   <g id="g1" transform="translate(-596.25854,-636.00157)">
      <path style="fill:#5f32b0"
         d="m 1002,1813.8448 c -30.36441,-5.4537 -56.28837,-29.1422 -65.49238,-59.8449 -3.54104,-11.8121 -3.28371,-34.3708 0.53233,-46.6666 8.83173,-28.4571 32.27134,-50.6444 60.54444,-57.3099 10.75531,-2.5356 30.03981,-2.5442 40.75371,-0.018 27.1145,6.3929 50.9598,28.5704 59.7872,55.6055 4.9379,15.1229 5.2325,35.8092 0.7082,49.7225 -10.1927,31.3441 -34.84,53.2327 -66.0082,58.6199 -14.0061,2.4209 -16.7976,2.4111 -30.8253,-0.1084 z m 421.3333,0 c -40.8018,-7.3283 -70.9566,-45.894 -68.1653,-87.1782 1.8445,-27.282 14.8402,-50.0466 36.9682,-64.7572 13.9397,-9.2671 25.4264,-12.8803 43.1971,-13.588 17.2104,-0.6854 28.2879,1.433 41.0001,7.8407 29.4552,14.8472 46.6949,42.2478 46.8762,74.5045 0.087,15.4624 -1.8765,24.0691 -8.6888,38.089 -11.7699,24.2224 -33.6479,40.5208 -60.7327,45.244 -13.6055,2.3726 -16.464,2.3581 -30.4548,-0.1548 z m -382.6666,-252.0575 c -26.7675,-3.2106 -53.7367,-10.9188 -76.06906,-21.7417 -62.11424,-30.1023 -106.34941,-83.1561 -124.5492,-149.379 -4.09172,-14.8884 -6.07438,-29.4533 -12.79579,-94 C 823.89263,1264.4 820.5645,1232.6 819.8568,1226 c -0.70771,-6.6 -2.15139,-20.4 -3.20818,-30.6667 -4.67625,-45.4292 -10.07216,-96.9203 -11.24782,-107.3333 -1.72002,-15.2346 -3.18535,-29.0554 -9.4008,-88.6667 -2.90555,-27.86667 -5.9249,-56.66666 -6.70966,-64 -0.78475,-7.33333 -1.99867,-18.73333 -2.69759,-25.33333 -7.24922,-68.45563 -7.64284,-70.77395 -14.52895,-85.57018 -14.42159,-30.98779 -43.00467,-53.60725 -75.62846,-59.84921 -5.50179,-1.05267 -17.06858,-1.91394 -25.70398,-1.91394 -19.97426,0 -27.71537,-1.46541 -39.7795,-7.53036 -18.34024,-9.22011 -30.81462,-26.88018 -33.83598,-47.90185 -1.36579,-9.50271 -1.22916,-11.70455 1.35566,-21.84683 3.4826,-13.66495 9.17894,-23.51601 18.59737,-32.16163 13.4296,-12.32765 28.46126,-17.22731 52.84264,-17.22437 58.32414,0.007 111.71197,18.88629 154.80878,54.74426 39.50505,32.8695 67.6445,80.03549 77.96566,130.68227 2.27374,11.15744 7.98068,57.87474 7.98068,65.33028 0,2.51521 6.79051,2.56351 407.66663,2.89969 l 407.6667,0.34187 7.6216,2.88326 c 21.9261,8.2946 37.0916,26.78535 41.1043,50.11674 1.9546,11.36494 0.682,19.13507 -7.4985,45.78588 -16.9095,55.08805 -22.3359,72.72455 -29.9108,97.21415 -4.5366,14.6666 -11.7887,38.2166 -16.1158,52.3333 -10.9212,35.6289 -22.5265,73.3413 -29.85,97 -3.405,11 -9.4064,30.5 -13.3365,43.3333 -21.8912,71.4847 -39.5926,128.1565 -41.8958,134.1309 -28.2028,73.1586 -88.9592,126.2299 -164.7852,143.9415 -25.0816,5.8587 -24.7701,5.851 -230.6666,5.6856 -107.8,-0.087 -197.8,-0.3734 -200,-0.6373 z m 405.1577,-128.2006 c 26.1296,-7.5701 47.2035,-22.7507 61.5726,-44.3538 9.0153,-13.5539 7.769,-10.0422 36.1636,-101.8996 1.8135,-5.8667 5.2905,-17.2667 7.7267,-25.3333 2.4362,-8.0667 7.2215,-23.6667 10.634,-34.6667 7.1847,-23.1596 10.3816,-33.523 28.7911,-93.3333 7.4487,-24.2 15.0286,-48.8 16.8443,-54.6667 1.8156,-5.8667 5.3088,-17.2667 7.7627,-25.3333 2.4539,-8.0667 6.0108,-19.7224 7.9044,-25.9017 1.8936,-6.1792 3.4429,-11.7292 3.4429,-12.3333 0,-1.1299 -700.38906,-1.5982 -701.51819,-0.4691 -0.58182,0.5818 0.16012,8.8737 4.11937,46.0374 0.82032,7.7 2.3585,22.4 3.41818,32.6667 1.05967,10.2666 4.06305,38.7666 6.67416,63.3333 2.61112,24.5667 6.20597,58.7667 7.98857,76 8.60678,83.2064 12.73146,118.6778 14.65147,126 1.15376,4.4 4.49255,12.8 7.41954,18.6667 15.6882,31.4444 45.2775,52.696 80.5802,57.8742 4.4,0.6454 92.9,1.0786 196.6667,0.9627 l 188.6666,-0.2108 z m 643.716,108.4111 c -32.1639,-3.6812 -53.5772,-8.7355 -80.2071,-18.9318 -79.8923,-30.5899 -135.4791,-95.9114 -158.0536,-185.7327 -7.1487,-28.444 -10.0246,-51.1734 -10.8861,-86.0375 -0.8288,-33.5409 0.3507,-50.6468 5.6057,-81.2958 20,-116.6471 94.1338,-198.63873 205.0273,-226.75922 78.3398,-19.86549 172.5136,-9.02028 235.3073,27.09838 29.1836,16.78625 58.7782,43.15834 76.6767,68.32744 11.2483,15.8174 26.0834,45.4619 32.2454,64.4345 3.6428,11.2162 11.4107,43.1573 11.4107,46.9201 0,0.355 -30.7815,0.6454 -68.4033,0.6454 h -68.4033 l -2.4676,-7 c -20.7518,-58.8689 -76.3985,-89.9311 -151.7037,-84.6817 -19.6786,1.3718 -37.5407,5.8629 -53.6296,13.4843 -15.4238,7.3063 -22.3597,12.0164 -34.4145,23.3706 -30.0079,28.2636 -45.9836,67.0782 -50.4693,122.6201 -4.2019,52.0271 6.7941,102.6975 29.8879,137.7265 27.4147,41.5829 69.072,62.539 124.4775,62.6195 67.9853,0.099 118.0753,-30.4563 138.3511,-84.3945 l 3.1619,-8.4114 66.8065,-0.3457 c 65.6522,-0.3397 66.8064,-0.3004 66.8064,2.276 0,4.2044 -8.7746,37.2198 -12.5628,47.2691 -19.8968,52.7816 -50.6618,91.2034 -98.1039,122.5199 -33.015,21.7932 -72.5862,36.0873 -119.3333,43.1061 -19.0932,2.8667 -66.7225,3.5076 -87.1263,1.1724 z m 639.1263,1.0885 c -81.9283,-7.1497 -148.9912,-41.3157 -197.109,-100.4197 -57.4177,-70.5271 -79.1745,-181.3573 -56.3333,-286.9646 16.7898,-77.628 61.3279,-142.3262 125.2414,-181.93164 80.1596,-49.67265 198.6858,-54.78248 287.2501,-12.38375 27.2944,13.0667 47.467,27.1716 69.4023,48.52649 24.0347,23.3989 39.5275,44.7621 54.7873,75.5469 31.9303,64.4156 41.4402,147.5825 25.956,226.9947 -13.3654,68.5461 -45.8445,125.2191 -95.8615,167.2694 -41.6645,35.0282 -91.82,55.4414 -153.0192,62.2786 -15.8512,1.7709 -46.1917,2.316 -60.3141,1.0836 z m 53.207,-125.8973 c 47.7176,-6.3178 86.6908,-35.4059 107.3495,-80.1217 20.9878,-45.428 25.4766,-111.5398 11.3348,-166.9414 -11.2644,-44.1291 -37.8943,-79.2554 -73.8913,-97.4668 -33.7539,-17.0766 -86.286,-20.0854 -124.4204,-7.1262 -33.764,11.474 -61.7756,36.4322 -78.8037,70.214 -21.1935,42.0454 -26.7756,110.8252 -13.4977,166.3118 20.0129,83.632 84.3639,126.724 171.9288,115.1303 z m 580.793,125.2885 c -101.8484,-9.3262 -179.0115,-59.8524 -220.6445,-144.4775 -45.2264,-91.9293 -44.8637,-224.8222 0.8618,-315.7656 26.3815,-52.4703 70.8936,-95.85493 123.7827,-120.64754 61.7127,-28.92884 149.1258,-36.21924 219.7185,-18.3249 63.363,16.06168 116.4543,52.06152 149.2246,101.18534 17.9582,26.92 34.1727,68.8877 38.3501,99.2612 l 0.957,6.9581 h -68.167 c -63.7318,0 -68.2182,-0.1518 -68.955,-2.3333 -2.5392,-7.5178 -10.2078,-24.223 -14.0209,-30.5428 -2.4424,-4.0479 -8.7318,-11.9875 -13.9765,-17.6434 -25.6545,-27.6659 -62.7362,-41.7306 -109.7975,-41.6453 -62.3992,0.1131 -106.33,25.312 -132.515,76.011 -11.0584,21.4112 -17.5559,44.2462 -20.9039,73.4653 -2.0552,17.9363 -0.9009,60.4074 2.0843,76.6885 11.7411,64.0366 43.4494,106.0064 94.6469,125.2772 29.0552,10.9363 75.6638,11.8981 108.6877,2.2428 42.5594,-12.4432 74.8487,-41.9937 87.254,-79.8533 l 2.2936,-7 h 67.2516 67.2516 l -0.6633,3 c -7.3567,33.2732 -13.5919,52.2452 -24.0969,73.3197 -35.1609,70.5376 -104.3626,120.5558 -188.6239,136.3355 -29.3763,5.5013 -69.3495,7.2957 -100,4.489 z m 351.3938,-10.6683 c 0.4988,-1.5715 47.8922,-134.6215 105.3186,-295.6666 l 104.4117,-292.8093 63.4379,-0.34626 c 34.8909,-0.19044 63.438,-0.1025 63.438,0.19543 0,0.29793 47.1,133.03263 104.6666,294.96603 C 4212.9,1400.0819 4260,1533.0439 4260,1533.6197 c 0,0.5758 -30.7548,1.0469 -68.344,1.0469 h -68.3439 L 4102.5502,1472.3333 4081.7883,1410 h -95.7673 -95.7672 l -21.0698,62 c -11.5884,34.1 -21.0955,62.1499 -21.1269,62.3333 -0.031,0.1833 -30.3975,0.3333 -67.4803,0.3333 h -67.4232 z M 4044,1299.9841 c 0,-0.7421 -10.759,-33.5921 -23.9089,-73 -20.567,-61.6355 -28.0216,-85.474 -32.8298,-104.9841 -0.8849,-3.5906 -1.2371,-2.9359 -3.4416,6.3967 -3.598,15.2318 -11.7419,40.8318 -35.0309,110.1184 -11.4338,34.0166 -20.7888,62.0666 -20.7888,62.3333 0,0.2667 26.1,0.4849 58,0.4849 38.2326,0 58,-0.4598 58,-1.3492 z m 290.6667,-61.3175 V 942.66664 h 121.2607 c 124.1431,0 141.9108,0.56072 170.7701,5.38932 89.2411,14.93136 144.3273,65.30324 158.8737,145.27734 3.3446,18.3882 4.03,58.2153 1.2964,75.3333 -8.9951,56.3282 -38.8344,99.3044 -87.5343,126.0714 -4.4,2.4184 -8.1299,4.4716 -8.2886,4.5626 -0.1588,0.091 23.0435,52.9357 51.5607,117.4325 l 51.8494,117.2668 -70.1488,0.3453 c -38.5819,0.1899 -70.5421,-0.1101 -71.0228,-0.6667 -0.4807,-0.5565 -20.5717,-47.0619 -44.6466,-103.3452 L 4564.864,1328 H 4514.432 4464 v 103.3333 103.3333 h -64.6667 -64.6666 z m 260.6666,-28.4279 c 14.2056,-4.0465 27.3521,-11.3794 36.161,-20.1699 14.0611,-14.0316 20.5057,-31.6321 20.5057,-56.002 0,-37.1069 -17.08,-60.8462 -51.3164,-71.3242 -13.6893,-4.1896 -37.8605,-5.5668 -90.0169,-5.1289 l -46,0.3863 -0.3441,77.7507 -0.3442,77.7508 61.6775,-0.492 c 53.1633,-0.424 62.7818,-0.8065 69.6774,-2.7708 z m 418,88.4279 v -236 h -84 -84 v -60 -59.99996 H 5078 5310.6667 v 59.99996 60 h -84 -84 v 236 236 H 5078 5013.3333 Z"
         id="path1" />
   </g>
</svg>